<?xml version="1.0" encoding="UTF-8" standalone="no"?><svg xmlns="http://www.w3.org/2000/svg" xmlns:xlink="http://www.w3.org/1999/xlink" fill="#000000" height="900" preserveAspectRatio="xMidYMid meet" version="1" viewBox="198.7 0.0 502.6 900.0" width="502.6" zoomAndPan="magnify"><g id="change1_1"><path d="M701.317,163.703V0H540.211v19.479h-24.592V0H384.38v19.479h-24.591V0H198.683v163.703h18.18v24.59h-18.18 v524.71h18.18v24.592h-18.18V900h161.106v-19.479h24.591V900h131.239v-19.479h24.592V900h161.106V737.595h-18.18v-24.592h18.18 v-524.71h-18.18v-24.59H701.317z M616.897,11.769h72.651V84.42h-16.222V67.973V29.4h-38.573h-17.856V11.769z M646.521,84.42V67.973 h15.036V84.42H646.521z M661.557,96.188v19.268h-15.036V96.188H661.557z M646.521,56.205V41.169h15.036v15.036H646.521z M616.897,41.169h17.856v15.036h-17.856V41.169z M616.897,67.973h17.856V84.42h-17.856V67.973z M295.326,41.169h17.857v15.036 h-17.857V41.169z M210.452,11.769h73.105V29.4H265.7h-38.572v38.573V84.42h-16.676V11.769z M265.7,56.205V41.169h17.857v15.036 H265.7z M283.557,67.973V84.42H265.7V67.973H283.557z M238.897,84.42V67.973h15.034V84.42H238.897z M253.931,96.188v19.268h-15.034 V96.188H253.931z M238.897,56.205V41.169h15.034v15.036H238.897z M283.557,888.231h-73.105v-71.583h16.676v16.446v38.573H265.7 h17.857V888.231z M253.931,816.648v16.446h-15.034v-16.446H253.931z M238.897,804.879v-19.268h15.034v19.268H238.897z M253.931,844.863v15.036h-15.034v-15.036H253.931z M283.557,859.898H265.7v-15.036h17.857V859.898z M283.557,833.094H265.7 v-16.446h17.857V833.094z M605.128,859.898h-17.857v-15.036h17.857V859.898z M689.548,888.231h-72.651v-16.564h17.856h38.573 v-38.573v-16.446h16.222V888.231z M634.753,844.863v15.036h-17.856v-15.036H634.753z M616.897,833.094v-16.446h17.856v16.446 H616.897z M661.557,816.648v16.446h-15.036v-16.446H661.557z M646.521,804.879v-19.268h15.036v19.268H646.521z M661.557,844.863 v15.036h-15.036v-15.036H661.557z M689.548,200.063v501.172h-18.18v48.129h18.18v55.515h-16.222v-31.037h-38.573v31.037h-29.624 v28.215h-29.626v38.573h29.626v16.564h-53.149v-19.479H503.85v19.479H396.149v-19.479h-48.128v19.479h-52.695v-16.564h29.626 v-38.573h-29.626v-28.215H265.7v-31.037h-38.572v31.037h-16.676v-55.515h18.18v-48.129h-18.18V200.063h18.18v-48.128h-18.18V96.188 h16.676v31.037H265.7V96.188h29.626V67.973h29.626V29.4h-29.626V11.769h52.695v19.479h48.128V11.769H503.85v19.479h48.129V11.769 h53.149V29.4h-29.626v38.573h29.626v28.215h29.624v31.037h38.573V96.188h16.222v55.746h-18.18v48.128H689.548z M295.326,859.898 v-15.036h17.857v15.036H295.326z M605.128,41.169v15.036h-17.857V41.169H605.128z" fill="#e0221a"/></g></svg>