<?xml version="1.0" encoding="UTF-8" standalone="no"?><svg xmlns="http://www.w3.org/2000/svg" xmlns:xlink="http://www.w3.org/1999/xlink" fill="#000000" height="52.7" preserveAspectRatio="xMidYMid meet" version="1" viewBox="15.3 129.1 275.6 52.7" width="275.6" zoomAndPan="magnify"><g fill="#e59a2e" id="change1_2"><path d="M23.12,136.63h-7.5v-7.5h7.5v7.5Zm-6.23-1.27h4.95v-4.95h-4.95v4.95Z"/><path d="M34.37,147.88h-7.5v-7.5h7.5v7.5Zm-6.23-1.27h4.95v-4.95h-4.95v4.95Z"/><path d="M37.37,150.88h-7.5v-7.5h7.5v7.5Zm-6.23-1.27h4.95v-4.95h-4.95v4.95Z"/><path d="M34.37,136.63h-7.5v-7.5h7.5v7.5Zm-6.23-1.27h4.95v-4.95h-4.95v4.95Z"/><path d="M23.12,147.88h-7.5v-7.5h7.5v7.5Zm-6.23-1.27h4.95v-4.95h-4.95v4.95Z"/><path d="M28.14,141.65h-6.3v-6.3h6.3v6.3Zm-5.02-1.27h3.75v-3.75h-3.75v3.75Z"/><path d="M22.98 158.33L21.99 157.52 23.74 155.38 21.85 153.16 21.85 146.61 27.51 146.61 27.51 147.88 23.12 147.88 23.12 152.69 25.4 155.36 22.98 158.33z"/><path d="M34.37,141.02h-1.27v-5.66h7.13v-6.28h29.47v2.95l151.67,.04v1.27l-151.67-.04v2.71h-25.67l-.04-3.99h24.44s0-1.66,0-1.66h-26.92v6.28h-7.13v4.38Zm10.91-6.29h23.14v-1.43h-23.15s.02,1.43,.02,1.43Z"/></g><g id="change1_5"><path d="M23.12 153.56L15.32 153.56 15.32 150.81 16.59 150.81 16.59 152.29 21.85 152.29 21.85 146.61 27.51 146.61 27.51 147.88 23.12 147.88 23.12 153.56z" fill="#e59a2e"/></g><g fill="#e59a2e" id="change1_3"><path d="M23.12,181.72h-7.5v-7.5h7.5v7.5Zm-6.23-1.27h4.95v-4.95h-4.95v4.95Z"/><path d="M34.37,170.47h-7.5v-7.5h7.5v7.5Zm-6.23-1.27h4.95v-4.95h-4.95v4.95Z"/><path d="M37.37,167.47h-7.5v-7.5h7.5v7.5Zm-6.23-1.27h4.95v-4.95h-4.95v4.95Z"/><path d="M34.37,181.72h-7.5v-7.5h7.5v7.5Zm-6.23-1.27h4.95v-4.95h-4.95v4.95Z"/><path d="M23.12,170.47h-7.5v-7.5h7.5v7.5Zm-6.23-1.27h4.95v-4.95h-4.95v4.95Z"/><path d="M28.14,175.49h-6.3v-6.3h6.3v6.3Zm-5.02-1.27h3.75v-3.75h-3.75v3.75Z"/><path d="M27.51 164.24L21.85 164.24 21.85 157.93 23.12 157.93 23.12 162.97 27.51 162.97 27.51 164.24z"/><path d="M69.69,181.77h-29.47v-6.28h-7.13v-5.66h1.27v4.38h7.13v6.28h26.92v-1.67h-24.44s.04-3.98,.04-3.98h25.67v2.71l151.67-.04v1.27l-151.67,.04v2.95Zm-24.41-5.65l-.02,1.44h23.15v-1.44h-23.14Z"/></g><g id="change1_6"><path d="M27.51 164.24L21.85 164.24 21.85 158.56 16.59 158.56 16.59 160.04 15.32 160.04 15.32 157.29 23.12 157.29 23.12 162.97 27.51 162.97 27.51 164.24z" fill="#e59a2e"/></g><g fill="#e59a2e" id="change1_1"><path d="M290.64,136.63h-7.5v-7.5h7.5v7.5Zm-6.23-1.27h4.95v-4.95h-4.95v4.95Z"/><path d="M279.39,147.88h-7.5v-7.5h7.5v7.5Zm-6.23-1.27h4.95v-4.95h-4.95v4.95Z"/><path d="M276.39,150.88h-7.5v-7.5h7.5v7.5Zm-6.23-1.27h4.95v-4.95h-4.95v4.95Z"/><path d="M279.39,136.63h-7.5v-7.5h7.5v7.5Zm-6.23-1.27h4.95v-4.95h-4.95v4.95Z"/><path d="M290.64,147.88h-7.5v-7.5h7.5v7.5Zm-6.23-1.27h4.95v-4.95h-4.95v4.95Z"/><path d="M284.41,141.65h-6.3v-6.3h6.3v6.3Zm-5.02-1.27h3.75v-3.75h-3.75v3.75Z"/><path d="M283.29 158.34L280.8 155.43 283.14 152.69 283.14 147.88 278.75 147.88 278.75 146.61 284.41 146.61 284.41 153.16 282.48 155.43 284.26 157.51 283.29 158.34z"/><path d="M273.16,141.02h-1.28v-4.38h-7.13v-6.28h-26.92v1.69l24.44-.03-.05,3.99h-25.67v-2.68l-15.2,.02v-1.27s15.2-.02,15.2-.02v-2.97h29.47v6.28h7.13v5.66Zm-35.32-6.29h23.14l.02-1.44-23.15,.03v1.41Z"/></g><g id="change1_7"><path d="M290.94 153.56L283.14 153.56 283.14 147.88 278.75 147.88 278.75 146.61 284.41 146.61 284.41 152.29 289.67 152.29 289.67 150.81 290.94 150.81 290.94 153.56z" fill="#e59a2e"/></g><g fill="#e59a2e" id="change1_4"><path d="M290.64,181.72h-7.5v-7.5h7.5v7.5Zm-6.23-1.27h4.95v-4.95h-4.95v4.95Z"/><path d="M279.39,170.47h-7.5v-7.5h7.5v7.5Zm-6.23-1.27h4.95v-4.95h-4.95v4.95Z"/><path d="M276.39,167.47h-7.5v-7.5h7.5v7.5Zm-6.23-1.27h4.95v-4.95h-4.95v4.95Z"/><path d="M279.39,181.72h-7.5v-7.5h7.5v7.5Zm-6.23-1.27h4.95v-4.95h-4.95v4.95Z"/><path d="M290.64,170.47h-7.5v-7.5h7.5v7.5Zm-6.23-1.27h4.95v-4.95h-4.95v4.95Z"/><path d="M284.41,175.49h-6.3v-6.3h6.3v6.3Zm-5.02-1.27h3.75v-3.75h-3.75v3.75Z"/><path d="M284.41 164.24L278.75 164.24 278.75 162.97 283.14 162.97 283.14 157.93 284.41 157.93 284.41 164.24z"/><path d="M266.03,181.77h-29.47v-2.97l-15.2-.02v-1.27s15.2,.02,15.2,.02v-2.68h25.67l.05,3.99-24.44-.03v1.69h26.92v-6.28h7.13v-4.38h1.28v5.66h-7.13v6.28Zm-28.19-4.24l23.15,.03-.02-1.44h-23.14v1.41Z"/></g><g id="change1_8"><path d="M284.41 164.24L278.75 164.24 278.75 162.97 283.14 162.97 283.14 157.29 290.94 157.29 290.94 160.04 289.67 160.04 289.67 158.56 284.41 158.56 284.41 164.24z" fill="#e59a2e"/></g></svg>