<?xml version="1.0" encoding="UTF-8" standalone="no"?><svg xmlns="http://www.w3.org/2000/svg" xmlns:xlink="http://www.w3.org/1999/xlink" fill="#000000" height="116.2" preserveAspectRatio="xMidYMid meet" version="1" viewBox="4.1 141.9 391.8 116.2" width="391.8" zoomAndPan="magnify"><g><g><g id="change1_1"><path d="M369.64,174.74v-8.72c0-12.59-17.36-22.84-38.7-22.84H66.41c-21.34,0-38.7,10.24-38.7,22.84v9.38 c-13.49,3.74-22.35,11.81-22.35,20.68v1.69c0,8.87,8.85,16.95,22.35,20.69v15.53c0,12.59,17.36,22.84,38.7,22.84h264.53 c21.34,0,38.7-10.24,38.7-22.84v-14.86c14.89-3.34,25-11.83,25-21.35v-1.69C394.64,186.56,384.53,178.08,369.64,174.74z" fill="#e0221a"/></g><g id="change2_16"><path d="M330.94,258.08H66.41c-22.04,0-39.96-10.81-39.96-24.1v-14.57C12.84,215.38,4.1,206.95,4.1,197.77v-1.69 c0-9.18,8.74-17.61,22.35-21.64v-8.43c0-13.29,17.93-24.1,39.96-24.1h264.53c22.04,0,39.96,10.81,39.96,24.1v7.71 c15,3.64,25,12.54,25,22.35v1.69c0,9.8-10,18.7-25,22.35v13.86C370.9,247.27,352.98,258.08,330.94,258.08z M66.41,144.45 c-20.64,0-37.44,9.68-37.44,21.57v10.34l-0.93,0.26c-13.01,3.6-21.42,11.24-21.42,19.47v1.69c0,8.22,8.41,15.86,21.42,19.47 l0.93,0.26v16.49c0,11.9,16.79,21.57,37.44,21.57h264.53c20.64,0,37.44-9.68,37.44-21.57V218.1l0.99-0.22 c14.36-3.22,24.01-11.31,24.01-20.11v-1.69c0-8.81-9.65-16.89-24.01-20.11l-0.99-0.22v-9.73c0-11.9-16.79-21.57-37.44-21.57H66.41 z" fill="#efb060"/></g></g><g><g id="change2_7"><path d="M24.79 195.72H32.07V197.85H24.79z" fill="#efb060" transform="rotate(-45.001 28.426 196.78)"/></g><g id="change2_19"><path d="M34.87,191.44c-0.18,0.44-0.44,0.85-0.79,1.2l0,0l-0.25,0.25l-1.5-1.5l0.25-0.25l0,0 c0.15-0.15,0.25-0.31,0.33-0.49l0,0c0.07-0.18,0.11-0.37,0.11-0.56h0l0,0l0-0.01h0c0,0,0,0,0,0c0,0,0-0.01,0-0.01v0 c0-0.19-0.04-0.38-0.11-0.55v0c-0.07-0.18-0.18-0.34-0.33-0.49l0,0c-0.15-0.15-0.31-0.25-0.49-0.33l0,0 c-0.18-0.07-0.37-0.11-0.56-0.11c-0.19,0-0.38,0.04-0.56,0.11l0,0c-0.18,0.07-0.34,0.18-0.49,0.33l0,0l-0.31,0.31l-3.55,3.55 l-1.5-1.5l3.55-3.55l0.29-0.29l0.01-0.01c0.35-0.35,0.76-0.62,1.2-0.79l0,0c0.44-0.18,0.9-0.26,1.36-0.26 c0.46,0,0.92,0.09,1.36,0.26l0,0c0.44,0.18,0.85,0.44,1.2,0.79l0,0c0.35,0.35,0.62,0.76,0.79,1.2l0,0 c0.18,0.44,0.26,0.9,0.26,1.36C35.14,190.54,35.05,191,34.87,191.44L34.87,191.44z" fill="#efb060"/></g><g id="change2_4"><path d="M24.73,194.56l-0.06-0.06c-0.17-0.17-0.33-0.33-0.48-0.47c-0.33-0.32-0.59-0.59-0.78-0.77v0 c-0.06-0.06-0.12-0.11-0.16-0.15l-0.01-0.01l-0.01-0.01l-0.03-0.01l-0.45-0.45c-0.35-0.35-0.62-0.76-0.79-1.2l0,0 c-0.18-0.44-0.26-0.9-0.26-1.36c0-0.46,0.09-0.92,0.26-1.36l0,0c0.18-0.44,0.44-0.85,0.79-1.2l0,0c0.35-0.35,0.76-0.62,1.2-0.79 l0,0c0.44-0.18,0.9-0.26,1.36-0.26c0.46,0,0.92,0.09,1.36,0.26l0,0c0.44,0.18,0.85,0.44,1.2,0.79l0,0l0.25,0.25l-1.5,1.5 l-0.25-0.25l0,0c-0.15-0.15-0.31-0.25-0.49-0.33l0,0c-0.18-0.07-0.37-0.11-0.56-0.11c-0.19,0-0.38,0.04-0.56,0.11l0,0 c-0.18,0.07-0.34,0.18-0.49,0.33l0,0c-0.15,0.15-0.25,0.31-0.33,0.49l0,0c-0.07,0.18-0.11,0.37-0.11,0.56s0.04,0.38,0.11,0.56 l0,0c0.07,0.18,0.18,0.34,0.33,0.49l0,0l0.25,0.25l0,0c0.03,0.03,0.06,0.05,0.09,0.07l0,0c0.06,0.05,0.13,0.12,0.21,0.2l0,0 c0.14,0.14,0.33,0.32,0.56,0.54c0.66,0.66,1.67,1.67,2.8,2.8l-1.51,1.5l-0.03-0.03l-0.01,0.01c-0.28-0.28-0.74-0.75-1.15-1.17 C25.14,194.98,24.85,194.68,24.73,194.56L24.73,194.56z" fill="#efb060"/></g><g id="change2_8"><path d="M22.76,200.9l-0.06-0.06L22.76,200.9l0.25-0.25l1.5,1.5l-0.25,0.25c-0.15,0.15-0.25,0.31-0.33,0.49 c-0.07,0.18-0.11,0.37-0.11,0.56s0.04,0.38,0.11,0.56l0,0c0.07,0.18,0.18,0.34,0.33,0.49l0,0c0.15,0.15,0.31,0.25,0.49,0.33 c0.18,0.07,0.37,0.11,0.56,0.11c0.19,0,0.38-0.04,0.56-0.11c0.18-0.07,0.34-0.18,0.49-0.33l0.31-0.31l3.55-3.55l1.5,1.5 l-3.55,3.55l-0.31,0.31c-0.35,0.35-0.76,0.62-1.2,0.79c-0.44,0.18-0.9,0.26-1.36,0.26c-0.46,0-0.92-0.09-1.36-0.26 c-0.44-0.18-0.85-0.44-1.2-0.79c-0.35-0.35-0.62-0.76-0.79-1.2c-0.18-0.44-0.26-0.9-0.26-1.36c0-0.46,0.09-0.92,0.27-1.36 C22.14,201.66,22.41,201.25,22.76,200.9z" fill="#efb060"/></g><g id="change2_5"><path d="M23.85 196.97H25.98V203.95H23.85z" fill="#efb060" transform="rotate(-45.001 24.914 200.466)"/></g><g id="change2_2"><path d="M28.67,198.53l1.51-1.5l0.03,0.03l0.01-0.01c0.28,0.28,0.74,0.75,1.15,1.17c0.34,0.34,0.63,0.64,0.75,0.76 l0,0l0.06,0.06c0.17,0.17,0.33,0.33,0.48,0.47c0.33,0.32,0.59,0.59,0.78,0.77c0.06,0.06,0.12,0.11,0.16,0.15l0.01,0.01l0.01,0.01 l0.03,0.01l0.45,0.45c0.35,0.35,0.62,0.76,0.79,1.2c0.18,0.44,0.26,0.9,0.26,1.36c0,0.46-0.09,0.92-0.26,1.36 c-0.18,0.44-0.44,0.85-0.79,1.2c-0.35,0.35-0.76,0.62-1.2,0.79c-0.44,0.18-0.9,0.26-1.36,0.26c-0.46,0-0.92-0.09-1.36-0.27 c-0.44-0.18-0.85-0.44-1.2-0.79l-0.25-0.25l1.5-1.5l0.25,0.25l0.06-0.06l-0.06,0.06c0.15,0.15,0.31,0.25,0.49,0.33 c0.18,0.07,0.37,0.11,0.56,0.11c0.19,0,0.38-0.04,0.56-0.11c0.18-0.07,0.34-0.18,0.49-0.33l0,0c0.15-0.15,0.25-0.31,0.33-0.49 c0.07-0.18,0.11-0.37,0.11-0.56l0,0l0,0l0-0.01h0c0,0,0,0,0,0c0,0,0,0,0-0.01v0l0,0c0-0.19-0.04-0.38-0.11-0.55 c-0.07-0.18-0.18-0.34-0.33-0.49l-0.25-0.25l0,0c-0.03-0.03-0.06-0.05-0.09-0.07l0,0c-0.06-0.05-0.13-0.12-0.21-0.2 c-0.14-0.14-0.33-0.32-0.56-0.54C30.8,200.67,29.8,199.67,28.67,198.53z" fill="#efb060"/></g><g id="change2_13"><path d="M14.5,195.62l-0.08-0.03L14.5,195.62c0.18-0.44,0.44-0.85,0.79-1.2l0,0c0.35-0.35,0.76-0.62,1.2-0.79 c0.44-0.18,0.9-0.26,1.36-0.26c0.46,0,0.92,0.09,1.36,0.26c0.44,0.18,0.85,0.44,1.2,0.79h0l0.31,0.31l0.46,0.46l-1.5,1.5 l-0.46-0.46l-0.31-0.31c-0.15-0.15-0.31-0.25-0.49-0.33c-0.18-0.07-0.37-0.11-0.56-0.11c-0.19,0-0.38,0.04-0.56,0.11l0,0 c-0.18,0.07-0.34,0.18-0.49,0.33l0,0c-0.07,0.07-0.14,0.15-0.19,0.23c-0.05,0.08-0.1,0.17-0.14,0.26l0.01-0.03l-0.01,0.03 c0,0,0,0,0,0l0,0c-0.07,0.17-0.1,0.35-0.11,0.53l0,0v0.03v0c0,0.19,0.04,0.38,0.11,0.56l0,0c0.07,0.18,0.18,0.34,0.33,0.49l0,0 c0.15,0.15,0.31,0.25,0.49,0.33c0.18,0.07,0.37,0.11,0.56,0.11c0.19,0,0.38-0.04,0.56-0.11c0.18-0.07,0.34-0.18,0.49-0.33l0,0 l0.25-0.25l0,0l0.01-0.01c0.03-0.04,0.06-0.07,0.1-0.11c0.06-0.07,0.14-0.15,0.24-0.25c0.34-0.35,0.9-0.92,1.58-1.59 c0.66-0.66,1.42-1.41,2.17-2.16l1.5,1.51c-0.97,0.96-1.96,1.95-2.71,2.7c-0.38,0.39-0.71,0.71-0.93,0.95 c-0.09,0.1-0.17,0.18-0.22,0.23l-0.01,0.01l-0.01,0.01l-0.01,0.02l-0.45,0.45c-0.35,0.35-0.76,0.62-1.2,0.79 c-0.44,0.18-0.9,0.26-1.36,0.26c-0.46,0-0.92-0.09-1.36-0.26c-0.43-0.18-0.84-0.44-1.19-0.79l-0.14-0.19v0.03 c-0.24-0.27-0.44-0.57-0.58-0.88c-0.02-0.05-0.05-0.11-0.07-0.16c-0.18-0.44-0.26-0.9-0.26-1.36 C14.23,196.52,14.32,196.06,14.5,195.62z" fill="#efb060"/></g><g id="change2_9"><path d="M37.93,197.6c0.15,0.15,0.31,0.25,0.49,0.33c0.18,0.07,0.37,0.11,0.56,0.11c0.19,0,0.38-0.04,0.56-0.11 c0.18-0.07,0.34-0.18,0.49-0.33l0,0l0,0l0,0l0,0c0.03-0.03,0.05-0.06,0.08-0.09c0.11-0.12,0.19-0.26,0.25-0.4l0,0 c0.07-0.18,0.11-0.37,0.11-0.56l0,0l0,0l0-0.01h0c0,0,0,0,0,0c0-0.16-0.03-0.32-0.08-0.47l0,0c-0.01-0.03-0.02-0.06-0.03-0.1l0,0 c-0.02-0.04-0.04-0.08-0.06-0.12l0,0l0-0.01l0,0c-0.07-0.13-0.16-0.25-0.27-0.36l0,0c-0.15-0.15-0.31-0.25-0.49-0.33l0,0 c-0.18-0.07-0.37-0.11-0.56-0.11c-0.19,0-0.38,0.04-0.56,0.11l0,0c-0.18,0.07-0.34,0.18-0.49,0.33l0,0l-0.25,0.25l0,0l-0.01,0.01 c-0.03,0.04-0.06,0.07-0.1,0.11l0,0c-0.06,0.07-0.14,0.15-0.24,0.25c-0.34,0.35-0.9,0.92-1.58,1.59 c-0.66,0.66-1.42,1.41-2.17,2.16l-1.5-1.51c0.97-0.96,1.96-1.95,2.71-2.7c0.38-0.39,0.71-0.71,0.93-0.95 c0.09-0.1,0.17-0.18,0.22-0.23l0.01-0.01l0.01-0.01l0.01-0.02l0.45-0.45c0.35-0.35,0.76-0.62,1.2-0.79 c0.44-0.18,0.9-0.26,1.36-0.26c0.46,0,0.92,0.09,1.36,0.27c0.44,0.18,0.85,0.44,1.2,0.79l0,0c0.06,0.06,0.12,0.12,0.17,0.19 c0.05,0.06,0.11,0.13,0.15,0.19c0.19,0.26,0.35,0.53,0.47,0.82c0.18,0.44,0.26,0.9,0.26,1.36c0,0.46-0.09,0.92-0.26,1.36 c-0.13,0.31-0.3,0.62-0.52,0.89l0,0c-0.02,0.02-0.03,0.04-0.04,0.06l0.01-0.01l-0.01,0.01c-0.05,0.06-0.1,0.12-0.16,0.18 c-0.02,0.03-0.05,0.05-0.07,0.07l0,0c-0.35,0.35-0.76,0.62-1.2,0.79c-0.44,0.18-0.9,0.26-1.36,0.26c-0.46,0-0.92-0.09-1.36-0.26 c-0.44-0.18-0.85-0.44-1.2-0.79l-0.31-0.31l-0.46-0.46l1.5-1.5l0.46,0.46L37.93,197.6z" fill="#efb060"/></g><g id="change2_18"><path d="M30.86 189.58H32.99V196.56H30.86z" fill="#efb060" transform="rotate(-45.001 31.923 193.069)"/></g></g><g><g id="change2_10"><path d="M368.59 193.14H370.71999999999997V200.42H368.59z" fill="#efb060" transform="rotate(-45.001 369.651 196.785)"/></g><g id="change2_15"><path d="M363.21,191.44c0.18,0.44,0.44,0.85,0.79,1.2l0,0l0.25,0.25l1.5-1.5l-0.25-0.25l0,0 c-0.15-0.15-0.25-0.31-0.33-0.49l0,0c-0.07-0.18-0.11-0.37-0.11-0.56h0l0,0l0-0.01h0c0,0,0,0,0,0c0,0,0-0.01,0-0.01v0 c0-0.19,0.04-0.38,0.11-0.55v0c0.07-0.18,0.18-0.34,0.33-0.49l0,0c0.15-0.15,0.31-0.25,0.49-0.33l0,0 c0.18-0.07,0.37-0.11,0.56-0.11c0.19,0,0.38,0.04,0.56,0.11l0,0c0.18,0.07,0.34,0.18,0.49,0.33l0,0l0.31,0.31l3.55,3.55l1.5-1.5 l-3.55-3.55l-0.29-0.29l-0.01-0.01c-0.35-0.35-0.76-0.62-1.2-0.79l0,0c-0.44-0.18-0.9-0.26-1.36-0.26 c-0.46,0-0.92,0.09-1.36,0.26l0,0c-0.44,0.18-0.85,0.44-1.2,0.79l0,0c-0.35,0.35-0.62,0.76-0.79,1.2l0,0 c-0.18,0.44-0.26,0.9-0.26,1.36C362.94,190.54,363.03,191,363.21,191.44L363.21,191.44z" fill="#efb060"/></g><g id="change2_12"><path d="M373.35,194.56l0.06-0.06c0.17-0.17,0.33-0.33,0.48-0.47c0.33-0.32,0.59-0.59,0.78-0.77v0 c0.06-0.06,0.12-0.11,0.16-0.15l0.01-0.01l0.01-0.01l0.03-0.01l0.45-0.45c0.35-0.35,0.62-0.76,0.79-1.2v0 c0.18-0.44,0.26-0.9,0.26-1.36c0-0.46-0.09-0.92-0.26-1.36l0,0c-0.18-0.44-0.44-0.85-0.79-1.2v0c-0.35-0.35-0.76-0.62-1.2-0.79 l0,0c-0.44-0.18-0.9-0.26-1.36-0.26c-0.46,0-0.92,0.09-1.36,0.26l0,0c-0.44,0.18-0.85,0.44-1.2,0.79v0l-0.25,0.25l1.5,1.5 l0.25-0.25l0,0c0.15-0.15,0.31-0.25,0.49-0.33l0,0c0.18-0.07,0.37-0.11,0.56-0.11c0.19,0,0.38,0.04,0.56,0.11l0,0 c0.18,0.07,0.34,0.18,0.49,0.33l0,0c0.15,0.15,0.25,0.31,0.33,0.49l0,0c0.07,0.18,0.11,0.37,0.11,0.56s-0.04,0.38-0.11,0.56l0,0 c-0.07,0.18-0.18,0.34-0.33,0.49l0,0l-0.25,0.25l0,0c-0.03,0.03-0.06,0.05-0.09,0.07l0,0c-0.06,0.05-0.13,0.12-0.21,0.2l0,0 c-0.14,0.14-0.33,0.32-0.56,0.54c-0.66,0.66-1.67,1.67-2.8,2.8l1.51,1.5l0.03-0.03l0.01,0.01c0.28-0.28,0.74-0.75,1.15-1.17 C372.94,194.98,373.23,194.68,373.35,194.56L373.35,194.56z" fill="#efb060"/></g><g id="change2_6"><path d="M375.32,200.9l0.06-0.06L375.32,200.9l-0.25-0.25l-1.5,1.5l0.25,0.25c0.15,0.15,0.25,0.31,0.33,0.49 c0.07,0.18,0.11,0.37,0.11,0.56s-0.04,0.38-0.11,0.56l0,0c-0.07,0.18-0.18,0.34-0.33,0.49l0,0c-0.15,0.15-0.31,0.25-0.49,0.33 c-0.18,0.07-0.37,0.11-0.56,0.11c-0.19,0-0.38-0.04-0.56-0.11c-0.18-0.07-0.34-0.18-0.49-0.33l-0.31-0.31l-3.55-3.55l-1.5,1.5 l3.55,3.55l0.31,0.31c0.35,0.35,0.76,0.62,1.2,0.79c0.44,0.18,0.9,0.26,1.36,0.26c0.46,0,0.92-0.09,1.36-0.26 c0.44-0.18,0.85-0.44,1.2-0.79c0.35-0.35,0.62-0.76,0.79-1.2c0.18-0.44,0.26-0.9,0.26-1.36c0-0.46-0.09-0.92-0.26-1.36 C375.94,201.66,375.67,201.25,375.32,200.9z" fill="#efb060"/></g><g id="change2_17"><path d="M369.67 199.4H376.65000000000003V201.53H369.67z" fill="#efb060" transform="rotate(-45.001 373.163 200.47)"/></g><g id="change2_3"><path d="M369.41,198.53l-1.51-1.5l-0.03,0.03l-0.01-0.01c-0.28,0.28-0.74,0.75-1.15,1.17 c-0.34,0.34-0.63,0.64-0.75,0.76l0,0l-0.06,0.06c-0.17,0.17-0.33,0.33-0.48,0.47c-0.33,0.32-0.59,0.59-0.78,0.77 c-0.06,0.06-0.12,0.11-0.16,0.15l-0.01,0.01l-0.01,0.01l-0.03,0.01L364,200.9c-0.35,0.35-0.62,0.76-0.79,1.2 c-0.18,0.44-0.26,0.9-0.26,1.36c0,0.46,0.09,0.92,0.26,1.36c0.18,0.44,0.44,0.85,0.79,1.2c0.35,0.35,0.76,0.62,1.2,0.79 c0.44,0.18,0.9,0.26,1.36,0.26c0.46,0,0.92-0.09,1.36-0.27c0.44-0.18,0.85-0.44,1.2-0.79l0.25-0.25l-1.5-1.5l-0.25,0.25 l-0.06-0.06l0.06,0.06c-0.15,0.15-0.31,0.25-0.49,0.33c-0.18,0.07-0.37,0.11-0.56,0.11c-0.19,0-0.38-0.04-0.56-0.11 c-0.18-0.07-0.34-0.18-0.49-0.33l0,0c-0.15-0.15-0.25-0.31-0.33-0.49c-0.07-0.18-0.11-0.37-0.11-0.56l0,0l0,0l0-0.01h0 c0,0,0,0,0,0c0,0,0,0,0-0.01v0l0,0c0-0.19,0.04-0.38,0.11-0.55c0.07-0.18,0.18-0.34,0.33-0.49l0.25-0.25l0,0 c0.03-0.03,0.06-0.05,0.09-0.07l0,0c0.06-0.05,0.13-0.12,0.21-0.2c0.14-0.14,0.33-0.32,0.56-0.54 C367.28,200.67,368.28,199.67,369.41,198.53z" fill="#efb060"/></g><g id="change2_1"><path d="M383.58,195.62l0.08-0.03L383.58,195.62c-0.18-0.44-0.44-0.85-0.79-1.2l0,0c-0.35-0.35-0.76-0.62-1.2-0.79 c-0.44-0.18-0.9-0.26-1.36-0.26c-0.46,0-0.92,0.09-1.36,0.26c-0.44,0.18-0.85,0.44-1.2,0.79h0l-0.31,0.31l-0.46,0.46l1.5,1.5 l0.46-0.46l0.31-0.31c0.15-0.15,0.31-0.25,0.49-0.33c0.18-0.07,0.37-0.11,0.56-0.11c0.19,0,0.38,0.04,0.56,0.11l0,0 c0.18,0.07,0.34,0.18,0.49,0.33l0,0c0.07,0.07,0.14,0.15,0.19,0.23c0.05,0.08,0.1,0.17,0.14,0.26l-0.01-0.03l0.01,0.03 c0,0,0,0,0,0l0,0c0.07,0.17,0.1,0.35,0.11,0.53l0,0v0.03v0c0,0.19-0.04,0.38-0.11,0.56v0c-0.07,0.18-0.18,0.34-0.33,0.49l0,0 c-0.15,0.15-0.31,0.25-0.49,0.33c-0.18,0.07-0.37,0.11-0.56,0.11c-0.19,0-0.38-0.04-0.56-0.11c-0.18-0.07-0.34-0.18-0.49-0.33 l0,0l-0.25-0.25l0,0l-0.01-0.01c-0.03-0.04-0.06-0.07-0.1-0.11c-0.06-0.07-0.14-0.15-0.24-0.25c-0.34-0.35-0.9-0.92-1.58-1.59 c-0.66-0.66-1.42-1.41-2.17-2.16l-1.5,1.51c0.97,0.96,1.96,1.95,2.71,2.7c0.38,0.39,0.71,0.71,0.93,0.95 c0.09,0.1,0.17,0.18,0.22,0.23l0.01,0.01l0.01,0.01l0.01,0.02l0.45,0.45c0.35,0.35,0.76,0.62,1.2,0.79 c0.44,0.18,0.9,0.26,1.36,0.26c0.46,0,0.92-0.09,1.36-0.26c0.43-0.18,0.84-0.44,1.19-0.79l0.14-0.19v0.03 c0.24-0.27,0.44-0.57,0.58-0.88c0.02-0.05,0.05-0.11,0.07-0.16c0.18-0.44,0.26-0.9,0.26-1.36 C383.85,196.52,383.76,196.06,383.58,195.62z" fill="#efb060"/></g><g id="change2_11"><path d="M360.15,197.6c-0.15,0.15-0.31,0.25-0.49,0.33c-0.18,0.07-0.37,0.11-0.56,0.11c-0.19,0-0.38-0.04-0.56-0.11 c-0.18-0.07-0.34-0.18-0.49-0.33l0,0l0,0l0,0l0,0c-0.03-0.03-0.05-0.06-0.08-0.09c-0.11-0.12-0.19-0.26-0.25-0.4l0,0 c-0.07-0.18-0.11-0.37-0.11-0.56l0,0l0,0l0-0.01h0c0,0,0,0,0,0c0-0.16,0.03-0.32,0.08-0.47l0,0c0.01-0.03,0.02-0.06,0.03-0.1l0,0 c0.02-0.04,0.04-0.08,0.06-0.12l0,0l0-0.01l0,0c0.07-0.13,0.16-0.25,0.27-0.36l0,0c0.15-0.15,0.31-0.25,0.49-0.33l0,0 c0.18-0.07,0.37-0.11,0.56-0.11c0.19,0,0.38,0.04,0.56,0.11l0,0c0.18,0.07,0.34,0.18,0.49,0.33l0,0l0.25,0.25l0,0l0.01,0.01 c0.03,0.04,0.06,0.07,0.1,0.11l0,0c0.06,0.07,0.14,0.15,0.24,0.25c0.34,0.35,0.9,0.92,1.58,1.59c0.66,0.66,1.42,1.41,2.17,2.16 l1.5-1.51c-0.97-0.96-1.96-1.95-2.71-2.7c-0.38-0.39-0.71-0.71-0.93-0.95c-0.09-0.1-0.17-0.18-0.22-0.23l-0.01-0.01l-0.01-0.01 l-0.01-0.02l-0.45-0.45c-0.35-0.35-0.76-0.62-1.2-0.79c-0.44-0.18-0.9-0.26-1.36-0.26c-0.46,0-0.92,0.09-1.36,0.27 c-0.44,0.18-0.85,0.44-1.2,0.79l0,0c-0.06,0.06-0.12,0.12-0.17,0.19c-0.05,0.06-0.11,0.13-0.15,0.19 c-0.19,0.26-0.35,0.53-0.47,0.82c-0.18,0.44-0.26,0.9-0.26,1.36c0,0.46,0.09,0.92,0.26,1.36c0.13,0.31,0.3,0.62,0.52,0.89l0,0 c0.02,0.02,0.03,0.04,0.04,0.06l-0.01-0.01l0.01,0.01c0.05,0.06,0.1,0.12,0.16,0.18c0.02,0.03,0.05,0.05,0.07,0.07l0,0 c0.35,0.35,0.76,0.62,1.2,0.79c0.44,0.18,0.9,0.26,1.36,0.26c0.46,0,0.92-0.09,1.36-0.26c0.44-0.18,0.85-0.44,1.2-0.79l0.31-0.31 l0.46-0.46l-1.5-1.5l-0.46,0.46L360.15,197.6z" fill="#efb060"/></g><g id="change2_14"><path d="M362.67 192H369.65000000000003V194.13H362.67z" fill="#efb060" transform="rotate(-45.001 366.152 193.07)"/></g></g></g></svg>