<?xml version="1.0" encoding="UTF-8"?><svg xmlns="http://www.w3.org/2000/svg" xmlns:xlink="http://www.w3.org/1999/xlink" height="234.8" preserveAspectRatio="xMidYMid meet" version="1.0" viewBox="-0.7 0.0 371.0 234.8" width="371.0" zoomAndPan="magnify"><g><g><radialGradient cx="197.771" cy="119.4" gradientTransform="matrix(1 0 0 -1 0 236.8)" gradientUnits="userSpaceOnUse" id="a" r="117.4" xlink:actuate="onLoad" xlink:show="other" xlink:type="simple" xmlns:xlink="http://www.w3.org/1999/xlink"><stop offset="0" stop-color="#f9c73e"/><stop offset="1" stop-color="#f9c73e" stop-opacity="0"/></radialGradient><circle cx="197.8" cy="117.4" fill="url(#a)" r="117.4"/><g id="change1_1"><path d="M279.8,117.4c0,35.6-22.7,66-54.5,77.2c-8.6,3-17.8,4.7-27.4,4.7c-45.2,0-81.9-36.7-81.9-81.9 c0-24.9,11.1-47.3,28.7-62.3c14.3-12.2,32.9-19.6,53.2-19.6C243.1,35.5,279.8,72.1,279.8,117.4z" fill="#F9C73E"/></g><g id="change2_1"><path d="M254.7,83.2c-2.6-1-4.3-3.5-4.3-6.3l0,0 c0-4.4,2.6-6.8,5.8-6.8c5.5,0,10.2,6.9,10.2,10.6c0,2.7-2.4,3.8-5.4,3.8C258.9,84.5,256.7,84,254.7,83.2z" fill="#E59A2E" opacity=".22"/></g><g id="change2_2"><path d="M193.1,85.2L193.1,85.2c-3.2-4.1-4.4-7.3-4.4-9.7 c0-4.6,4.5-6.4,9.4-6.4c9,0,13.5,5.3,13.5,9.4c0,4.7-6.3,7.9-12.5,7.9C197,86.3,194.9,86,193.1,85.2z" fill="#E59A2E" opacity=".22"/></g><g id="change2_3"><path d="M202.8,173.6c-1.8-3.2-2.5-5.9-2.5-8.1c0-5.4,4.5-7.9,9.5-7.9 c6.5,0,13.1,4.2,13.1,10.1c0,5.7-6.7,9.9-12.5,9.9C207.2,177.6,204.3,176.4,202.8,173.6z" fill="#E59A2E" opacity=".22"/></g><g id="change2_4"><path d="M141.2,105.4c-2.3-3.6-3.3-7.3-3.3-10.7 c0-11.4,10.9-20.8,21.4-20.8s17,10,17,18.1c0,11.2-11.3,21-21.8,21C149.4,112.9,144.6,110.7,141.2,105.4z" fill="#E59A2E" opacity=".22"/></g><g id="change2_5"><path d="M184.4,129.8c-3.4-2.3-5.4-6-5.4-9.8 c0-8.3,9.8-13.8,16.7-13.8c6.7,0,10.5,5,10.5,10.7c0,7.4-6.3,15.4-14.1,15.4C189.5,132.3,187,131.5,184.4,129.8z" fill="#E59A2E" opacity=".22"/></g><g id="change2_6"><path d="M225.2,194.6c-8.6,3-17.8,4.7-27.4,4.7 c-45.2,0-81.9-36.7-81.9-81.9c0-24.9,11.1-47.3,28.7-62.3c-6.2,17.2-16.6,33-16.6,51.2C128,178.6,185.8,196.6,225.2,194.6z" fill="#E59A2E" opacity=".26"/></g></g><g id="change3_1"><path d="M46.4,83.2c-2.5-1-2.1-4.5,0.4-5c8.3-1.7,16.7-2.1,25.1-2.1c11.5,0,34.2,0.7,34.2,0.7c1.5,0,2.9,0,4.4-0.2 c2.8-0.3,3.2-4.2,0.6-5.1c-1.4-0.5-3.9-0.3-4.1-1.7c0-0.1,0-0.2,0-0.4c0-4,7.6-4.5,10.7-4.5l0,0c12.7,0,25.4,0.6,38.1,0.8h0.1 c0.8,0,2.8-0.1,5-0.1c3.9,0,8.5,0.4,8.5,2.7c0,3.8-7.2,3.9-11.2,3.9c-1.5,0-3.1,0-4.7,0c-3.1,0-11.3,0.1-11.3,3.3 c0,1.9,3.5,2.4,5.5,2.4c2.5,0,2.8-0.3,7.2-0.3c8.4,0,16.9,0.7,25.4,0.7c0.1,0,0.3,0,0.4,0l0,0c1.4,0,9,0.5,9,3.1 c0,3.4-6.2,4.4-9.8,4.4c-3.4,0,0.8-0.2-19.8-0.2c-6.5,0-13,0-19.6,0l0,0c-0.5,0-2.6-0.1-5.1-0.1c-4.1,0-9,0.3-9,2.1v0.1 c0.7,6.7,35.4,1.9,35.4,7.8c0,5.8-8,6.6-16.2,6.6c-3,0-6.1-0.1-8.8-0.1c-2.3,0-9.3,0-9.3,2.4c0,2.5,12.2,4.1,12.2,6.5 c0,5.5-20,5.1-25.7,5.1c-9,0-19.9-0.3-25.9-1.3c-2.5-0.4-3-3.8-0.7-4.9c6.4-3.3,18.1-1,18.1-4.6c0-4.2-8.2-4.7-12.6-4.7 c-8.1,0-11.1,1.3-47.1,1.3c-14.8,0-29.6-0.9-43.8-4.5c-2.3-0.6-2.7-3.8-0.6-4.9c3.5-1.7,7.2-2.3,11.1-2.3c5.7,0,11.7,1.1,17.6,1.1 c0.5,0,1.2,0,3.3,0c6.2,0,12.6,0.1,19,0.1c10.2,0,20.4-0.3,30.3-1.6c2.7-0.4,3.1-4.1,0.6-5.1c-3-1.1-6.5-1.5-10.3-1.5 c-6.3,0-13.2,1-18.9,1C51.2,84.3,48.5,84,46.4,83.2z" fill="#F7D581"/></g><g id="change3_2"><path d="M331.6,176.1c2-0.8,1.8-3.6-0.4-4c-6.8-1.3-13.7-1.6-20.7-1.6c-9.5,0-28.1,0.6-28.2,0.6 c-1.2,0-2.4,0-3.6-0.1c-2.3-0.2-2.7-3.4-0.5-4.1c1.1-0.4,3.2-0.2,3.4-1.4c0-0.1,0-0.2,0-0.3c0-3.2-6.3-3.6-8.8-3.6l0,0 c-10.4,0-20.9,0.4-31.4,0.6h-0.1c-0.6,0-2.3-0.1-4.1-0.1c-3.2,0-7,0.3-7,2.2c0,3,5.9,3.1,9.3,3.1c1.3,0,2.6,0,3.9,0 c2.6,0,9.3,0.1,9.3,2.6c0,1.5-2.9,1.9-4.5,1.9c-2.1,0-2.3-0.2-5.9-0.2c-7,0-13.9,0.6-20.9,0.6c-0.1,0-0.2,0-0.4,0l0,0 c-1.1,0-7.4,0.4-7.4,2.5c0,2.8,5.1,3.5,8.1,3.5c2.8,0-0.7-0.1,16.3-0.1c5.4,0,10.7,0,16.1,0l0,0c0.4,0,2.2-0.1,4.2-0.1 c3.3,0,7.4,0.3,7.4,1.7v0.1c-0.6,5.4-29.2,1.5-29.2,6.2c0,4.6,6.6,5.3,13.3,5.3c2.5,0,5-0.1,7.3-0.1c1.9,0,11.5-0.7,12.9,0.5 c5.5,4.9,19.6-1.8,23.3-1.8c6.6,0,9.2,1.1,38.8,1.1c12.2,0,24.4-0.7,36-3.6c1.9-0.5,2.2-3,0.5-3.9c-2.8-1.4-5.9-1.8-9.1-1.8 c-4.7,0-9.6,0.9-14.5,0.9c-0.4,0-1,0-2.7,0c-5.1,0-10.4,0.1-15.6,0.1c-8.4,0-16.8-0.2-24.9-1.3c-2.2-0.3-2.6-3.3-0.5-4 c2.4-0.9,5.4-1.2,8.4-1.2c5.2,0,10.8,0.8,15.6,0.8C327.6,177,329.9,176.8,331.6,176.1z" fill="#F7D581"/></g></g></svg>