<?xml version="1.0" encoding="UTF-8" standalone="no"?><svg xmlns="http://www.w3.org/2000/svg" xmlns:xlink="http://www.w3.org/1999/xlink" data-name="Layer 1" fill="#ffffff" height="66" preserveAspectRatio="xMidYMid meet" version="1" viewBox="12.7 15.7 79.7 66.0" width="79.7" zoomAndPan="magnify"><g id="change1_1"><path d="M44.7793,19.0957a1.47474,1.47474,0,0,0-.15485.04328c-.04364.01245-.08948.02057-.13122.03668a1.46206,1.46206,0,0,0-.14032.07037c-.041.02112-.08436.03833-.12281.06287a1.47185,1.47185,0,0,0-.11712.091c-.03724.0293-.07709.05548-.11121.088-.03375.03216-.0611.06982-.09161.10491-.0326.03748-.06806.07258-.09687.113-.02472.03485-.04266.07373-.06433.1106a1.50081,1.50081,0,0,0-.07934.13934c-.01563.03455-.0243.072-.03736.10773a1.47628,1.47628,0,0,0-.05639.16729c-.00751.03187-.00818.06556-.01355.09809a1.46432,1.46432,0,0,0-.02521.19476c-.00092.02735.00464.05548.00525.08313a1.48793,1.48793,0,0,0,.0133.21106l.66767,4.04883c-.13068.02148-.25177.04236-.36.062L35.41309,18.749a1.50068,1.50068,0,0,0-2.35157,1.53125l1.70313,7.78614a14.65285,14.65285,0,0,0-2.46381,1.92669l-17.668-3.71917a1.5,1.5,0,0,0-1.16015,2.70263l13.71759,9.45453a45.41381,45.41381,0,0,0-2.25666,12.295v.20118a5.186,5.186,0,0,0,5.19434,5.166,5.03989,5.03989,0,0,0,4.127-2.17529l2.75879-4.021H38.7832a9.26009,9.26009,0,0,0,8.67969-6.02685,5.45073,5.45073,0,0,1,4.001,3.666c.46386,2.21485-1.47852,4.68408-5.33008,6.77344C32.64453,61.624,34.53125,79.45605,34.61816,80.21143a1.49959,1.49959,0,0,0,2.64747.78222C52.35156,62.686,73.65137,78.88574,74.55078,79.58447a1.50026,1.50026,0,0,0,2.2793-.54736,51.0572,51.0572,0,0,0,2.61432-7.35053l3.91693.99311A1.49724,1.49724,0,0,0,85.16309,71.666c.2998-.97657,7.19043-24.09473-6.11621-40.02588C65.70508,15.667,45.627,18.94873,44.7793,19.0957ZM21.332,30.74951l8.75989,1.84406a21.87263,21.87263,0,0,0-1.73743,2.99627Zm53.46582,45.3584C69.43457,72.605,51.625,62.80811,37.5166,76.313a32.98169,32.98169,0,0,1,.68579-5.68457C40.17963,68.87189,50.70178,60.57349,66.043,67.521a1.5,1.5,0,0,0,1.23828-2.73243C54.69708,59.09064,44.80707,62.85278,39.66357,65.94a19.13108,19.13108,0,0,1,3.72791-5.79278,30.54825,30.54825,0,0,1,23.839.14331,1.50007,1.50007,0,0,0,1.21484-2.74317,32.6629,32.6629,0,0,0-18.03442-2.43548,11.51655,11.51655,0,0,0,3.27875-3.66779c2.2395-.10174,8.43237-.18609,13.42657,1.60327a1.5,1.5,0,1,0,1.01172-2.82422,39.98946,39.98946,0,0,0-13.6015-1.81225,6.33809,6.33809,0,0,0-.126-1.49,6.55129,6.55129,0,0,0-.51251-1.4513,32.56348,32.56348,0,0,1,10.47052.49329,1.5,1.5,0,1,0,.7207-2.91211,37.31873,37.31873,0,0,0-13.40753-.33441A9.47746,9.47746,0,0,0,48.041,40.91553c.00293-.09424.00488-.188.00488-.28174v-2.3291a1.5,1.5,0,0,0-3,0v2.3291a6.08678,6.08678,0,0,1-.12305,1.20068c-.0039.01758-.00781.03516-.01074.05274A6.24176,6.24176,0,0,1,38.7832,46.897H36.22363a1.5019,1.5019,0,0,0-1.2373.65137l-3.19922,4.66357a2.032,2.032,0,0,1-1.65918.88135,2.18279,2.18279,0,0,1-2.19434-2.166l-.00195-.12061a40.96875,40.96875,0,0,1,2.40753-12.29028,1.48262,1.48262,0,0,0,.1034-.27411c1.38244-3.4093,3.48931-6.44617,6.70294-8.0733a1.50191,1.50191,0,0,0,.78808-1.6587l-1.09472-5.00146L42.627,27.74121a1.51307,1.51307,0,0,0,1.25391.24317,18.69256,18.69256,0,0,1,2.05359-.35877l.01575.00281a1.5114,1.5114,0,0,0,.24609-.02c.03223-.00531.06116-.0177.09253-.025A28.49731,28.49731,0,0,1,72.80371,39.38916C82.65527,52.57764,76.918,70.60791,74.79785,76.10791Zm7.8584-6.70166-2.47778-.62836c1.925-8.57348,2.64795-20.98431-4.97144-31.18414A31.73738,31.73738,0,0,0,47.21094,24.54022l-.43842-2.65857c4.71607-.4049,19.71613-.59631,29.97162,11.68134C87.23438,46.12158,83.88086,64.29639,82.65625,69.40625Z"/></g><g id="change1_2"><path d="M38.12891,33.98828A3.69225,3.69225,0,0,0,34.69238,37.856a1.5,1.5,0,0,0,3,0c0-.14112.02735-.84571.57325-.87061a1.49968,1.49968,0,0,0,1.42968-1.56689A1.48356,1.48356,0,0,0,38.12891,33.98828Z"/></g></svg>